solid OpenSCAD_Model
  facet normal 0 0 -1
    outer loop
      vertex -10 0 -2
      vertex -9.92115 1.25333 -2
      vertex -9.92115 -1.25333 -2
    endloop
  endfacet
  facet normal 0 0 -1
    outer loop
      vertex -9.92115 -1.25333 -2
      vertex -9.92115 1.25333 -2
      vertex -9.68583 2.4869 -2
    endloop
  endfacet
  facet normal 0 0 -1
    outer loop
      vertex -9.92115 -1.25333 -2
      vertex -9.68583 2.4869 -2
      vertex -9.29777 3.68125 -2
    endloop
  endfacet
  facet normal 0 0 -1
    outer loop
      vertex -9.92115 -1.25333 -2
      vertex -9.29777 3.68125 -2
      vertex -8.76307 4.81754 -2
    endloop
  endfacet
  facet normal 0 0 -1
    outer loop
      vertex -9.92115 -1.25333 -2
      vertex -8.76307 4.81754 -2
      vertex -8.09017 5.87785 -2
    endloop
  endfacet
  facet normal 0 0 -1
    outer loop
      vertex -9.92115 -1.25333 -2
      vertex -8.09017 5.87785 -2
      vertex -7.28969 6.84547 -2
    endloop
  endfacet
  facet normal 0 0 -1
    outer loop
      vertex -9.92115 -1.25333 -2
      vertex -7.28969 6.84547 -2
      vertex -6.37424 7.70513 -2
    endloop
  endfacet
  facet normal 0 0 -1
    outer loop
      vertex -9.92115 -1.25333 -2
      vertex -6.37424 7.70513 -2
      vertex -5.35827 8.44328 -2
    endloop
  endfacet
  facet normal 0 0 -1
    outer loop
      vertex -9.92115 -1.25333 -2
      vertex -5.35827 8.44328 -2
      vertex -4.25779 9.04827 -2
    endloop
  endfacet
  facet normal 0 0 -1
    outer loop
      vertex -9.92115 -1.25333 -2
      vertex -4.25779 9.04827 -2
      vertex -3.09017 9.51056 -2
    endloop
  endfacet
  facet normal 0 0 -1
    outer loop
      vertex -9.92115 -1.25333 -2
      vertex -3.09017 9.51056 -2
      vertex -1.87381 9.82287 -2
    endloop
  endfacet
  facet normal 0 0 -1
    outer loop
      vertex -9.92115 -1.25333 -2
      vertex -1.87381 9.82287 -2
      vertex -0.627905 9.98027 -2
    endloop
  endfacet
  facet normal 0 0 -1
    outer loop
      vertex -9.92115 -1.25333 -2
      vertex -0.627905 9.98027 -2
      vertex 0.627905 9.98027 -2
    endloop
  endfacet
  facet normal 0 0 -1
    outer loop
      vertex -9.92115 -1.25333 -2
      vertex 0.627905 9.98027 -2
      vertex 1.87381 9.82287 -2
    endloop
  endfacet
  facet normal 0 0 -1
    outer loop
      vertex -9.92115 -1.25333 -2
      vertex 1.87381 9.82287 -2
      vertex 3.09017 9.51056 -2
    endloop
  endfacet
  facet normal 0 0 -1
    outer loop
      vertex -9.92115 -1.25333 -2
      vertex 3.09017 9.51056 -2
      vertex 4.25779 9.04827 -2
    endloop
  endfacet
  facet normal 0 0 -1
    outer loop
      vertex -9.92115 -1.25333 -2
      vertex 4.25779 9.04827 -2
      vertex 5.35827 8.44328 -2
    endloop
  endfacet
  facet normal 0 0 -1
    outer loop
      vertex -9.92115 -1.25333 -2
      vertex 5.35827 8.44328 -2
      vertex 6.37424 7.70513 -2
    endloop
  endfacet
  facet normal 0 0 -1
    outer loop
      vertex -9.92115 -1.25333 -2
      vertex 6.37424 7.70513 -2
      vertex 7.28969 6.84547 -2
    endloop
  endfacet
  facet normal 0 0 -1
    outer loop
      vertex -9.92115 -1.25333 -2
      vertex 7.28969 6.84547 -2
      vertex 8.09017 5.87785 -2
    endloop
  endfacet
  facet normal 0 0 -1
    outer loop
      vertex -9.92115 -1.25333 -2
      vertex 8.09017 5.87785 -2
      vertex 8.76307 4.81754 -2
    endloop
  endfacet
  facet normal 0 0 -1
    outer loop
      vertex 0.494427 1.52169 -2
      vertex 8.76307 4.81754 -2
      vertex 9.29777 3.68125 -2
    endloop
  endfacet
  facet normal 0 0 -1
    outer loop
      vertex 1.29443 0.940456 -2
      vertex 9.29777 3.68125 -2
      vertex 9.68583 2.4869 -2
    endloop
  endfacet
  facet normal 0 0 -1
    outer loop
      vertex 1.46167 0.650779 -2
      vertex 9.68583 2.4869 -2
      vertex 9.92115 1.25333 -2
    endloop
  endfacet
  facet normal 0 0 -1
    outer loop
      vertex 1.6 0 -2
      vertex 9.92115 1.25333 -2
      vertex 10 0 -2
    endloop
  endfacet
  facet normal 0 0 -1
    outer loop
      vertex 1.29443 -0.940456 -2
      vertex 10 0 -2
      vertex 9.92115 -1.25333 -2
    endloop
  endfacet
  facet normal 0 0 -1
    outer loop
      vertex 0.8 -1.38564 -2
      vertex 9.92115 -1.25333 -2
      vertex 9.68583 -2.4869 -2
    endloop
  endfacet
  facet normal 0 0 -1
    outer loop
      vertex -9.92115 -1.25333 -2
      vertex 9.68583 -2.4869 -2
      vertex 9.29777 -3.68125 -2
    endloop
  endfacet
  facet normal 0 0 -1
    outer loop
      vertex -9.92115 -1.25333 -2
      vertex 9.29777 -3.68125 -2
      vertex 8.76307 -4.81754 -2
    endloop
  endfacet
  facet normal 0 0 -1
    outer loop
      vertex -9.92115 -1.25333 -2
      vertex 8.76307 -4.81754 -2
      vertex 8.09017 -5.87785 -2
    endloop
  endfacet
  facet normal 0 0 -1
    outer loop
      vertex -9.92115 -1.25333 -2
      vertex 8.09017 -5.87785 -2
      vertex 7.28969 -6.84547 -2
    endloop
  endfacet
  facet normal 0 0 -1
    outer loop
      vertex -9.92115 -1.25333 -2
      vertex 7.28969 -6.84547 -2
      vertex 6.37424 -7.70513 -2
    endloop
  endfacet
  facet normal 0 0 -1
    outer loop
      vertex -9.92115 -1.25333 -2
      vertex 6.37424 -7.70513 -2
      vertex 5.35827 -8.44328 -2
    endloop
  endfacet
  facet normal 0 0 -1
    outer loop
      vertex -9.92115 -1.25333 -2
      vertex 5.35827 -8.44328 -2
      vertex 4.25779 -9.04827 -2
    endloop
  endfacet
  facet normal 0 0 -1
    outer loop
      vertex -9.92115 -1.25333 -2
      vertex 4.25779 -9.04827 -2
      vertex 3.09017 -9.51056 -2
    endloop
  endfacet
  facet normal 0 0 -1
    outer loop
      vertex -9.92115 -1.25333 -2
      vertex 3.09017 -9.51056 -2
      vertex 1.87381 -9.82287 -2
    endloop
  endfacet
  facet normal 0 0 -1
    outer loop
      vertex -9.92115 -1.25333 -2
      vertex 1.87381 -9.82287 -2
      vertex 0.627905 -9.98027 -2
    endloop
  endfacet
  facet normal 0 0 -1
    outer loop
      vertex -9.92115 -1.25333 -2
      vertex 0.627905 -9.98027 -2
      vertex -0.627905 -9.98027 -2
    endloop
  endfacet
  facet normal 0 0 -1
    outer loop
      vertex -9.92115 -1.25333 -2
      vertex -0.627905 -9.98027 -2
      vertex -1.87381 -9.82287 -2
    endloop
  endfacet
  facet normal 0 0 -1
    outer loop
      vertex -9.92115 -1.25333 -2
      vertex -1.87381 -9.82287 -2
      vertex -3.09017 -9.51056 -2
    endloop
  endfacet
  facet normal 0 0 -1
    outer loop
      vertex -9.92115 -1.25333 -2
      vertex -3.09017 -9.51056 -2
      vertex -4.25779 -9.04827 -2
    endloop
  endfacet
  facet normal 0 0 -1
    outer loop
      vertex -9.92115 -1.25333 -2
      vertex -4.25779 -9.04827 -2
      vertex -5.35827 -8.44328 -2
    endloop
  endfacet
  facet normal 0 0 -1
    outer loop
      vertex -9.92115 -1.25333 -2
      vertex -5.35827 -8.44328 -2
      vertex -6.37424 -7.70513 -2
    endloop
  endfacet
  facet normal 0 0 -1
    outer loop
      vertex -9.92115 -1.25333 -2
      vertex -6.37424 -7.70513 -2
      vertex -7.28969 -6.84547 -2
    endloop
  endfacet
  facet normal 0 0 -1
    outer loop
      vertex -9.92115 -1.25333 -2
      vertex -7.28969 -6.84547 -2
      vertex -8.09017 -5.87785 -2
    endloop
  endfacet
  facet normal 0 0 -1
    outer loop
      vertex -9.92115 -1.25333 -2
      vertex -8.09017 -5.87785 -2
      vertex -8.76307 -4.81754 -2
    endloop
  endfacet
  facet normal 0 0 -1
    outer loop
      vertex -9.92115 -1.25333 -2
      vertex -8.76307 -4.81754 -2
      vertex -9.29777 -3.68125 -2
    endloop
  endfacet
  facet normal 0 0 -1
    outer loop
      vertex -9.92115 -1.25333 -2
      vertex -9.29777 -3.68125 -2
      vertex -9.68583 -2.4869 -2
    endloop
  endfacet
  facet normal 0 0 -1
    outer loop
      vertex -1.29443 -0.940456 -2
      vertex -9.92115 -1.25333 -2
      vertex -1.46167 -0.650779 -2
    endloop
  endfacet
  facet normal 0 0 -1
    outer loop
      vertex -9.92115 -1.25333 -2
      vertex -1.56504 -0.332659 -2
      vertex -1.46167 -0.650779 -2
    endloop
  endfacet
  facet normal 0 0 -1
    outer loop
      vertex 1.56504 -0.332659 -2
      vertex 10 0 -2
      vertex 1.46167 -0.650779 -2
    endloop
  endfacet
  facet normal 0 0 -1
    outer loop
      vertex -9.92115 -1.25333 -2
      vertex -1.29443 -0.940456 -2
      vertex -1.07061 -1.18903 -2
    endloop
  endfacet
  facet normal 0 0 -1
    outer loop
      vertex 0.494427 -1.52169 -2
      vertex 9.68583 -2.4869 -2
      vertex 0.167246 -1.59123 -2
    endloop
  endfacet
  facet normal 0 0 -1
    outer loop
      vertex -9.92115 -1.25333 -2
      vertex -0.8 -1.38564 -2
      vertex -0.494427 -1.52169 -2
    endloop
  endfacet
  facet normal 0 0 -1
    outer loop
      vertex -9.92115 -1.25333 -2
      vertex -0.494427 -1.52169 -2
      vertex -0.167246 -1.59123 -2
    endloop
  endfacet
  facet normal 0 0 -1
    outer loop
      vertex -9.92115 -1.25333 -2
      vertex -0.167246 -1.59123 -2
      vertex 9.68583 -2.4869 -2
    endloop
  endfacet
  facet normal 0 0 -1
    outer loop
      vertex -0.167246 -1.59123 -2
      vertex 0.167246 -1.59123 -2
      vertex 9.68583 -2.4869 -2
    endloop
  endfacet
  facet normal 0 0 -1
    outer loop
      vertex 0.8 -1.38564 -2
      vertex 9.68583 -2.4869 -2
      vertex 0.494427 -1.52169 -2
    endloop
  endfacet
  facet normal 0 0 -1
    outer loop
      vertex 1.07061 -1.18903 -2
      vertex 9.92115 -1.25333 -2
      vertex 0.8 -1.38564 -2
    endloop
  endfacet
  facet normal 0 0 -1
    outer loop
      vertex 1.29443 -0.940456 -2
      vertex 9.92115 -1.25333 -2
      vertex 1.07061 -1.18903 -2
    endloop
  endfacet
  facet normal 0 0 -1
    outer loop
      vertex 1.46167 -0.650779 -2
      vertex 10 0 -2
      vertex 1.29443 -0.940456 -2
    endloop
  endfacet
  facet normal 0 0 -1
    outer loop
      vertex -0.8 -1.38564 -2
      vertex -9.92115 -1.25333 -2
      vertex -1.07061 -1.18903 -2
    endloop
  endfacet
  facet normal 0 0 -1
    outer loop
      vertex 1.6 0 -2
      vertex 10 0 -2
      vertex 1.56504 -0.332659 -2
    endloop
  endfacet
  facet normal 0 0 -1
    outer loop
      vertex 1.56504 0.332659 -2
      vertex 9.92115 1.25333 -2
      vertex 1.6 0 -2
    endloop
  endfacet
  facet normal 0 0 -1
    outer loop
      vertex 1.29443 0.940456 -2
      vertex 9.68583 2.4869 -2
      vertex 1.46167 0.650779 -2
    endloop
  endfacet
  facet normal 0 0 -1
    outer loop
      vertex 1.07061 1.18903 -2
      vertex 9.29777 3.68125 -2
      vertex 1.29443 0.940456 -2
    endloop
  endfacet
  facet normal 0 0 -1
    outer loop
      vertex 0.494427 1.52169 -2
      vertex 9.29777 3.68125 -2
      vertex 0.8 1.38564 -2
    endloop
  endfacet
  facet normal 0 0 -1
    outer loop
      vertex 0.8 1.38564 -2
      vertex 9.29777 3.68125 -2
      vertex 1.07061 1.18903 -2
    endloop
  endfacet
  facet normal 0 0 -1
    outer loop
      vertex 0.167246 1.59123 -2
      vertex 8.76307 4.81754 -2
      vertex 0.494427 1.52169 -2
    endloop
  endfacet
  facet normal 0 0 -1
    outer loop
      vertex -0.8 1.38564 -2
      vertex -9.92115 -1.25333 -2
      vertex -0.494427 1.52169 -2
    endloop
  endfacet
  facet normal 0 0 -1
    outer loop
      vertex -0.167246 1.59123 -2
      vertex 8.76307 4.81754 -2
      vertex 0.167246 1.59123 -2
    endloop
  endfacet
  facet normal 0 0 -1
    outer loop
      vertex -0.494427 1.52169 -2
      vertex 8.76307 4.81754 -2
      vertex -0.167246 1.59123 -2
    endloop
  endfacet
  facet normal 0 0 -1
    outer loop
      vertex -9.92115 -1.25333 -2
      vertex 8.76307 4.81754 -2
      vertex -0.494427 1.52169 -2
    endloop
  endfacet
  facet normal 0 0 -1
    outer loop
      vertex -1.07061 1.18903 -2
      vertex -9.92115 -1.25333 -2
      vertex -0.8 1.38564 -2
    endloop
  endfacet
  facet normal 0 0 -1
    outer loop
      vertex -1.29443 0.940456 -2
      vertex -9.92115 -1.25333 -2
      vertex -1.07061 1.18903 -2
    endloop
  endfacet
  facet normal 0 0 -1
    outer loop
      vertex -1.56504 0.332659 -2
      vertex -9.92115 -1.25333 -2
      vertex -1.46167 0.650779 -2
    endloop
  endfacet
  facet normal 0 0 -1
    outer loop
      vertex -1.46167 0.650779 -2
      vertex -9.92115 -1.25333 -2
      vertex -1.29443 0.940456 -2
    endloop
  endfacet
  facet normal 0 0 -1
    outer loop
      vertex -9.92115 -1.25333 -2
      vertex -1.56504 0.332659 -2
      vertex -1.6 0 -2
    endloop
  endfacet
  facet normal 0 0 -1
    outer loop
      vertex -1.56504 -0.332659 -2
      vertex -9.92115 -1.25333 -2
      vertex -1.6 0 -2
    endloop
  endfacet
  facet normal 0 0 -1
    outer loop
      vertex 1.46167 0.650779 -2
      vertex 9.92115 1.25333 -2
      vertex 1.56504 0.332659 -2
    endloop
  endfacet
  facet normal -0.998027 0.0627905 0
    outer loop
      vertex -10 0 -2
      vertex -10 0 1.3
      vertex -9.92115 1.25333 -2
    endloop
  endfacet
  facet normal -0.998027 0.0627905 0
    outer loop
      vertex -9.92115 1.25333 -2
      vertex -10 0 1.3
      vertex -10 1.22461e-15 1.3
    endloop
  endfacet
  facet normal -0.998027 0.0627905 0
    outer loop
      vertex -9.92115 1.25333 -2
      vertex -10 1.22461e-15 1.3
      vertex -9.95596 0.7 2
    endloop
  endfacet
  facet normal -0.998027 0.0627905 0
    outer loop
      vertex -9.92115 1.25333 -2
      vertex -9.95596 0.7 2
      vertex -9.92115 1.25333 2
    endloop
  endfacet
  facet normal -0.998027 -0.0627905 0
    outer loop
      vertex -10 0 -2
      vertex -9.92115 -1.25333 -2
      vertex -10 0 1.3
    endloop
  endfacet
  facet normal -0.998027 -0.0627905 0
    outer loop
      vertex -10 0 1.3
      vertex -9.92115 -1.25333 -2
      vertex -9.92115 -1.25333 2
    endloop
  endfacet
  facet normal -0.998027 -0.0627905 0
    outer loop
      vertex -10 0 1.3
      vertex -9.92115 -1.25333 2
      vertex -9.95596 -0.7 2
    endloop
  endfacet
  facet normal -0.982287 -0.187381 0
    outer loop
      vertex -9.92115 -1.25333 -2
      vertex -9.68583 -2.4869 -2
      vertex -9.92115 -1.25333 2
    endloop
  endfacet
  facet normal -0.982287 -0.187381 0
    outer loop
      vertex -9.92115 -1.25333 2
      vertex -9.68583 -2.4869 -2
      vertex -9.68583 -2.4869 2
    endloop
  endfacet
  facet normal -0.951056 -0.309017 0
    outer loop
      vertex -9.68583 -2.4869 -2
      vertex -9.29777 -3.68125 -2
      vertex -9.68583 -2.4869 2
    endloop
  endfacet
  facet normal -0.951056 -0.309017 0
    outer loop
      vertex -9.68583 -2.4869 2
      vertex -9.29777 -3.68125 -2
      vertex -9.29777 -3.68125 2
    endloop
  endfacet
  facet normal -0.904827 -0.425779 0
    outer loop
      vertex -9.29777 -3.68125 -2
      vertex -8.76307 -4.81754 -2
      vertex -9.29777 -3.68125 2
    endloop
  endfacet
  facet normal -0.904827 -0.425779 0
    outer loop
      vertex -9.29777 -3.68125 2
      vertex -8.76307 -4.81754 -2
      vertex -8.76307 -4.81754 2
    endloop
  endfacet
  facet normal -0.844328 -0.535827 0
    outer loop
      vertex -8.76307 -4.81754 -2
      vertex -8.09017 -5.87785 -2
      vertex -8.76307 -4.81754 2
    endloop
  endfacet
  facet normal -0.844328 -0.535827 0
    outer loop
      vertex -8.76307 -4.81754 2
      vertex -8.09017 -5.87785 -2
      vertex -8.09017 -5.87785 1.3
    endloop
  endfacet
  facet normal -0.844328 -0.535827 0
    outer loop
      vertex -8.46599 -5.28565 2
      vertex -8.76307 -4.81754 2
      vertex -8.09017 -5.87785 1.3
    endloop
  endfacet
  facet normal -0.770513 -0.637424 0
    outer loop
      vertex -8.09017 -5.87785 -2
      vertex -7.28969 -6.84547 -2
      vertex -8.09017 -5.87785 1.3
    endloop
  endfacet
  facet normal -0.770513 -0.637424 0
    outer loop
      vertex -8.09017 -5.87785 1.3
      vertex -7.28969 -6.84547 -2
      vertex -7.28969 -6.84547 2
    endloop
  endfacet
  facet normal -0.770513 -0.637424 0
    outer loop
      vertex -8.09017 -5.87785 1.3
      vertex -7.28969 -6.84547 2
      vertex -7.64309 -6.41828 2
    endloop
  endfacet
  facet normal -0.684547 -0.728969 0
    outer loop
      vertex -7.28969 -6.84547 2
      vertex -7.28969 -6.84547 -2
      vertex -6.37424 -7.70513 -2
    endloop
  endfacet
  facet normal -0.684547 -0.728969 0
    outer loop
      vertex -6.37424 -7.70513 2
      vertex -7.28969 -6.84547 2
      vertex -6.37424 -7.70513 -2
    endloop
  endfacet
  facet normal -0.587785 -0.809017 0
    outer loop
      vertex -6.37424 -7.70513 2
      vertex -6.37424 -7.70513 -2
      vertex -5.35827 -8.44328 -2
    endloop
  endfacet
  facet normal -0.587785 -0.809017 0
    outer loop
      vertex -5.35827 -8.44328 2
      vertex -6.37424 -7.70513 2
      vertex -5.35827 -8.44328 -2
    endloop
  endfacet
  facet normal -0.481754 -0.876306 0
    outer loop
      vertex -5.35827 -8.44328 2
      vertex -5.35827 -8.44328 -2
      vertex -4.25779 -9.04827 -2
    endloop
  endfacet
  facet normal -0.481754 -0.876306 0
    outer loop
      vertex -4.25779 -9.04827 2
      vertex -5.35827 -8.44328 2
      vertex -4.25779 -9.04827 -2
    endloop
  endfacet
  facet normal -0.368124 -0.929777 0
    outer loop
      vertex -4.25779 -9.04827 2
      vertex -4.25779 -9.04827 -2
      vertex -3.09017 -9.51056 -2
    endloop
  endfacet
  facet normal -0.368124 -0.929777 0
    outer loop
      vertex -3.7423 -9.25237 2
      vertex -4.25779 -9.04827 2
      vertex -3.09017 -9.51056 1.3
    endloop
  endfacet
  facet normal -0.368124 -0.929777 0
    outer loop
      vertex -3.09017 -9.51056 1.3
      vertex -4.25779 -9.04827 2
      vertex -3.09017 -9.51056 -2
    endloop
  endfacet
  facet normal -0.24869 -0.968583 0
    outer loop
      vertex -3.09017 -9.51056 1.3
      vertex -3.09017 -9.51056 -2
      vertex -1.87381 -9.82287 -2
    endloop
  endfacet
  facet normal -0.24869 -0.968583 0
    outer loop
      vertex -3.09017 -9.51057 1.3
      vertex -3.09017 -9.51056 1.3
      vertex -1.87381 -9.82287 -2
    endloop
  endfacet
  facet normal -0.24869 -0.968583 0
    outer loop
      vertex -1.87381 -9.82287 2
      vertex -3.09017 -9.51057 1.3
      vertex -1.87381 -9.82287 -2
    endloop
  endfacet
  facet normal -0.24869 -0.968583 0
    outer loop
      vertex -2.41082 -9.68499 2
      vertex -3.09017 -9.51057 1.3
      vertex -1.87381 -9.82287 2
    endloop
  endfacet
  facet normal -0.125333 -0.992115 0
    outer loop
      vertex -1.87381 -9.82287 2
      vertex -1.87381 -9.82287 -2
      vertex -0.627905 -9.98027 -2
    endloop
  endfacet
  facet normal -0.125333 -0.992115 0
    outer loop
      vertex -0.627905 -9.98027 2
      vertex -1.87381 -9.82287 2
      vertex -0.627905 -9.98027 -2
    endloop
  endfacet
  facet normal 0 -1 0
    outer loop
      vertex -0.627905 -9.98027 2
      vertex -0.627905 -9.98027 -2
      vertex 0.627905 -9.98027 -2
    endloop
  endfacet
  facet normal 0 -1 0
    outer loop
      vertex 0.627905 -9.98027 2
      vertex -0.627905 -9.98027 2
      vertex 0.627905 -9.98027 -2
    endloop
  endfacet
  facet normal 0.125333 -0.992115 0
    outer loop
      vertex 0.627905 -9.98027 2
      vertex 0.627905 -9.98027 -2
      vertex 1.87381 -9.82287 -2
    endloop
  endfacet
  facet normal 0.125333 -0.992115 0
    outer loop
      vertex 1.87381 -9.82287 2
      vertex 0.627905 -9.98027 2
      vertex 1.87381 -9.82287 -2
    endloop
  endfacet
  facet normal 0.24869 -0.968583 0
    outer loop
      vertex 1.87381 -9.82287 2
      vertex 1.87381 -9.82287 -2
      vertex 3.09017 -9.51056 -2
    endloop
  endfacet
  facet normal 0.24869 -0.968583 0
    outer loop
      vertex 3.09017 -9.51057 1.3
      vertex 1.87381 -9.82287 2
      vertex 3.09017 -9.51056 -2
    endloop
  endfacet
  facet normal 0.24869 -0.968583 0
    outer loop
      vertex 3.09017 -9.51056 1.3
      vertex 3.09017 -9.51057 1.3
      vertex 3.09017 -9.51056 -2
    endloop
  endfacet
  facet normal 0.24869 -0.968583 0
    outer loop
      vertex 3.09017 -9.51057 1.3
      vertex 2.41082 -9.68499 2
      vertex 1.87381 -9.82287 2
    endloop
  endfacet
  facet normal 0.368124 -0.929777 0
    outer loop
      vertex 3.09017 -9.51056 1.3
      vertex 3.09017 -9.51056 -2
      vertex 4.25779 -9.04827 -2
    endloop
  endfacet
  facet normal 0.368124 -0.929777 0
    outer loop
      vertex 3.7423 -9.25237 2
      vertex 3.09017 -9.51056 1.3
      vertex 4.25779 -9.04827 2
    endloop
  endfacet
  facet normal 0.368124 -0.929777 0
    outer loop
      vertex 4.25779 -9.04827 2
      vertex 3.09017 -9.51056 1.3
      vertex 4.25779 -9.04827 -2
    endloop
  endfacet
  facet normal 0.481754 -0.876306 0
    outer loop
      vertex 4.25779 -9.04827 2
      vertex 4.25779 -9.04827 -2
      vertex 5.35827 -8.44328 -2
    endloop
  endfacet
  facet normal 0.481754 -0.876306 0
    outer loop
      vertex 5.35827 -8.44328 2
      vertex 4.25779 -9.04827 2
      vertex 5.35827 -8.44328 -2
    endloop
  endfacet
  facet normal 0.587785 -0.809017 0
    outer loop
      vertex 5.35827 -8.44328 2
      vertex 5.35827 -8.44328 -2
      vertex 6.37424 -7.70513 -2
    endloop
  endfacet
  facet normal 0.587785 -0.809017 0
    outer loop
      vertex 6.37424 -7.70513 2
      vertex 5.35827 -8.44328 2
      vertex 6.37424 -7.70513 -2
    endloop
  endfacet
  facet normal 0.684547 -0.728969 0
    outer loop
      vertex 6.37424 -7.70513 2
      vertex 6.37424 -7.70513 -2
      vertex 7.28969 -6.84547 -2
    endloop
  endfacet
  facet normal 0.684547 -0.728969 0
    outer loop
      vertex 7.28969 -6.84547 2
      vertex 6.37424 -7.70513 2
      vertex 7.28969 -6.84547 -2
    endloop
  endfacet
  facet normal 0.770513 -0.637424 0
    outer loop
      vertex 7.28969 -6.84547 2
      vertex 7.28969 -6.84547 -2
      vertex 8.09017 -5.87785 -2
    endloop
  endfacet
  facet normal 0.770513 -0.637424 0
    outer loop
      vertex 7.64309 -6.41828 2
      vertex 7.28969 -6.84547 2
      vertex 8.09017 -5.87785 1.3
    endloop
  endfacet
  facet normal 0.770513 -0.637424 0
    outer loop
      vertex 8.09017 -5.87785 1.3
      vertex 7.28969 -6.84547 2
      vertex 8.09017 -5.87785 -2
    endloop
  endfacet
  facet normal 0.844328 -0.535827 0
    outer loop
      vertex 8.09017 -5.87785 1.3
      vertex 8.09017 -5.87785 -2
      vertex 8.76307 -4.81754 -2
    endloop
  endfacet
  facet normal 0.844328 -0.535827 0
    outer loop
      vertex 8.76307 -4.81754 2
      vertex 8.09017 -5.87785 1.3
      vertex 8.76307 -4.81754 -2
    endloop
  endfacet
  facet normal 0.844328 -0.535827 0
    outer loop
      vertex 8.46599 -5.28565 2
      vertex 8.09017 -5.87785 1.3
      vertex 8.76307 -4.81754 2
    endloop
  endfacet
  facet normal 0.904827 -0.425779 0
    outer loop
      vertex 8.76307 -4.81754 2
      vertex 8.76307 -4.81754 -2
      vertex 9.29777 -3.68125 -2
    endloop
  endfacet
  facet normal 0.904827 -0.425779 0
    outer loop
      vertex 9.29777 -3.68125 2
      vertex 8.76307 -4.81754 2
      vertex 9.29777 -3.68125 -2
    endloop
  endfacet
  facet normal 0.951056 -0.309017 0
    outer loop
      vertex 9.29777 -3.68125 2
      vertex 9.29777 -3.68125 -2
      vertex 9.68583 -2.4869 -2
    endloop
  endfacet
  facet normal 0.951056 -0.309017 0
    outer loop
      vertex 9.68583 -2.4869 2
      vertex 9.29777 -3.68125 2
      vertex 9.68583 -2.4869 -2
    endloop
  endfacet
  facet normal 0.982287 -0.187381 0
    outer loop
      vertex 9.68583 -2.4869 2
      vertex 9.68583 -2.4869 -2
      vertex 9.92115 -1.25333 -2
    endloop
  endfacet
  facet normal 0.982287 -0.187381 0
    outer loop
      vertex 9.92115 -1.25333 2
      vertex 9.68583 -2.4869 2
      vertex 9.92115 -1.25333 -2
    endloop
  endfacet
  facet normal 0.998027 -0.0627905 0
    outer loop
      vertex 9.92115 -1.25333 2
      vertex 9.92115 -1.25333 -2
      vertex 10 0 -2
    endloop
  endfacet
  facet normal 0.998027 -0.0627905 0
    outer loop
      vertex 9.95596 -0.7 2
      vertex 9.92115 -1.25333 2
      vertex 10 0 1.3
    endloop
  endfacet
  facet normal 0.998027 -0.0627905 0
    outer loop
      vertex 10 0 1.3
      vertex 9.92115 -1.25333 2
      vertex 10 0 -2
    endloop
  endfacet
  facet normal 0.998027 0.0627905 0
    outer loop
      vertex 10 0 -2
      vertex 9.92115 1.25333 -2
      vertex 9.92115 1.25333 2
    endloop
  endfacet
  facet normal 0.998027 0.0627905 0
    outer loop
      vertex 10 0 1.3
      vertex 10 0 -2
      vertex 9.95596 0.7 2
    endloop
  endfacet
  facet normal 0.998027 0.0627905 0
    outer loop
      vertex 9.95596 0.7 2
      vertex 10 0 -2
      vertex 9.92115 1.25333 2
    endloop
  endfacet
  facet normal 0.982287 0.187381 0
    outer loop
      vertex 9.92115 1.25333 -2
      vertex 9.68583 2.4869 -2
      vertex 9.68583 2.4869 2
    endloop
  endfacet
  facet normal 0.982287 0.187381 0
    outer loop
      vertex 9.92115 1.25333 2
      vertex 9.92115 1.25333 -2
      vertex 9.68583 2.4869 2
    endloop
  endfacet
  facet normal 0.951056 0.309017 0
    outer loop
      vertex 9.68583 2.4869 -2
      vertex 9.29777 3.68125 -2
      vertex 9.29777 3.68125 2
    endloop
  endfacet
  facet normal 0.951056 0.309017 0
    outer loop
      vertex 9.68583 2.4869 2
      vertex 9.68583 2.4869 -2
      vertex 9.29777 3.68125 2
    endloop
  endfacet
  facet normal 0.904827 0.425779 0
    outer loop
      vertex 9.29777 3.68125 -2
      vertex 8.76307 4.81754 -2
      vertex 8.76307 4.81754 2
    endloop
  endfacet
  facet normal 0.904827 0.425779 0
    outer loop
      vertex 9.29777 3.68125 2
      vertex 9.29777 3.68125 -2
      vertex 8.76307 4.81754 2
    endloop
  endfacet
  facet normal 0.844328 0.535827 0
    outer loop
      vertex 8.76307 4.81754 -2
      vertex 8.09017 5.87785 -2
      vertex 8.09017 5.87785 1.3
    endloop
  endfacet
  facet normal 0.844328 0.535827 0
    outer loop
      vertex 8.46599 5.28565 2
      vertex 8.76307 4.81754 -2
      vertex 8.09017 5.87785 1.3
    endloop
  endfacet
  facet normal 0.844328 0.535827 0
    outer loop
      vertex 8.76307 4.81754 2
      vertex 8.76307 4.81754 -2
      vertex 8.46599 5.28565 2
    endloop
  endfacet
  facet normal 0.770513 0.637424 0
    outer loop
      vertex 8.09017 5.87785 -2
      vertex 7.28969 6.84547 -2
      vertex 7.28969 6.84547 2
    endloop
  endfacet
  facet normal 0.770513 0.637424 0
    outer loop
      vertex 8.09017 5.87785 1.3
      vertex 8.09017 5.87785 -2
      vertex 7.64309 6.41828 2
    endloop
  endfacet
  facet normal 0.770513 0.637424 0
    outer loop
      vertex 7.64309 6.41828 2
      vertex 8.09017 5.87785 -2
      vertex 7.28969 6.84547 2
    endloop
  endfacet
  facet normal 0.684547 0.728969 0
    outer loop
      vertex 6.37424 7.70513 -2
      vertex 6.37424 7.70513 2
      vertex 7.28969 6.84547 -2
    endloop
  endfacet
  facet normal 0.684547 0.728969 0
    outer loop
      vertex 7.28969 6.84547 -2
      vertex 6.37424 7.70513 2
      vertex 7.28969 6.84547 2
    endloop
  endfacet
  facet normal 0.587785 0.809017 0
    outer loop
      vertex 5.35827 8.44328 -2
      vertex 5.35827 8.44328 2
      vertex 6.37424 7.70513 -2
    endloop
  endfacet
  facet normal 0.587785 0.809017 0
    outer loop
      vertex 6.37424 7.70513 -2
      vertex 5.35827 8.44328 2
      vertex 6.37424 7.70513 2
    endloop
  endfacet
  facet normal 0.481754 0.876306 0
    outer loop
      vertex 4.25779 9.04827 -2
      vertex 4.25779 9.04827 2
      vertex 5.35827 8.44328 -2
    endloop
  endfacet
  facet normal 0.481754 0.876306 0
    outer loop
      vertex 5.35827 8.44328 -2
      vertex 4.25779 9.04827 2
      vertex 5.35827 8.44328 2
    endloop
  endfacet
  facet normal 0.368124 0.929777 0
    outer loop
      vertex 3.09017 9.51056 -2
      vertex 3.09017 9.51056 1.3
      vertex 4.25779 9.04827 -2
    endloop
  endfacet
  facet normal 0.368124 0.929777 0
    outer loop
      vertex 4.25779 9.04827 -2
      vertex 3.09017 9.51056 1.3
      vertex 3.7423 9.25237 2
    endloop
  endfacet
  facet normal 0.368124 0.929777 0
    outer loop
      vertex 4.25779 9.04827 -2
      vertex 3.7423 9.25237 2
      vertex 4.25779 9.04827 2
    endloop
  endfacet
  facet normal 0.24869 0.968583 0
    outer loop
      vertex 1.87381 9.82287 -2
      vertex 1.87381 9.82287 2
      vertex 3.09017 9.51056 -2
    endloop
  endfacet
  facet normal 0.24869 0.968583 0
    outer loop
      vertex 3.09017 9.51056 -2
      vertex 1.87381 9.82287 2
      vertex 2.41082 9.68499 2
    endloop
  endfacet
  facet normal 0.24869 0.968583 0
    outer loop
      vertex 3.09017 9.51056 -2
      vertex 2.41082 9.68499 2
      vertex 3.09017 9.51057 1.3
    endloop
  endfacet
  facet normal 0.24869 0.968583 0
    outer loop
      vertex 3.09017 9.51056 -2
      vertex 3.09017 9.51057 1.3
      vertex 3.09017 9.51056 1.3
    endloop
  endfacet
  facet normal 0.125333 0.992115 0
    outer loop
      vertex 0.627905 9.98027 -2
      vertex 0.627905 9.98027 2
      vertex 1.87381 9.82287 -2
    endloop
  endfacet
  facet normal 0.125333 0.992115 0
    outer loop
      vertex 1.87381 9.82287 -2
      vertex 0.627905 9.98027 2
      vertex 1.87381 9.82287 2
    endloop
  endfacet
  facet normal 0 1 0
    outer loop
      vertex -0.627905 9.98027 -2
      vertex -0.627905 9.98027 2
      vertex 0.627905 9.98027 -2
    endloop
  endfacet
  facet normal 0 1 0
    outer loop
      vertex 0.627905 9.98027 -2
      vertex -0.627905 9.98027 2
      vertex 0.627905 9.98027 2
    endloop
  endfacet
  facet normal -0.125333 0.992115 0
    outer loop
      vertex -1.87381 9.82287 -2
      vertex -1.87381 9.82287 2
      vertex -0.627905 9.98027 -2
    endloop
  endfacet
  facet normal -0.125333 0.992115 0
    outer loop
      vertex -0.627905 9.98027 -2
      vertex -1.87381 9.82287 2
      vertex -0.627905 9.98027 2
    endloop
  endfacet
  facet normal -0.24869 0.968583 0
    outer loop
      vertex -3.09017 9.51056 -2
      vertex -3.09017 9.51056 1.3
      vertex -1.87381 9.82287 -2
    endloop
  endfacet
  facet normal -0.24869 0.968583 0
    outer loop
      vertex -1.87381 9.82287 -2
      vertex -3.09017 9.51056 1.3
      vertex -3.09017 9.51057 1.3
    endloop
  endfacet
  facet normal -0.24869 0.968583 0
    outer loop
      vertex -1.87381 9.82287 -2
      vertex -3.09017 9.51057 1.3
      vertex -2.41082 9.68499 2
    endloop
  endfacet
  facet normal -0.24869 0.968583 0
    outer loop
      vertex -1.87381 9.82287 -2
      vertex -2.41082 9.68499 2
      vertex -1.87381 9.82287 2
    endloop
  endfacet
  facet normal -0.368124 0.929777 0
    outer loop
      vertex -4.25779 9.04827 -2
      vertex -4.25779 9.04827 2
      vertex -3.09017 9.51056 -2
    endloop
  endfacet
  facet normal -0.368124 0.929777 0
    outer loop
      vertex -3.09017 9.51056 -2
      vertex -4.25779 9.04827 2
      vertex -3.7423 9.25237 2
    endloop
  endfacet
  facet normal -0.368124 0.929777 0
    outer loop
      vertex -3.09017 9.51056 -2
      vertex -3.7423 9.25237 2
      vertex -3.09017 9.51056 1.3
    endloop
  endfacet
  facet normal -0.481754 0.876306 0
    outer loop
      vertex -5.35827 8.44328 -2
      vertex -5.35827 8.44328 2
      vertex -4.25779 9.04827 -2
    endloop
  endfacet
  facet normal -0.481754 0.876306 0
    outer loop
      vertex -4.25779 9.04827 -2
      vertex -5.35827 8.44328 2
      vertex -4.25779 9.04827 2
    endloop
  endfacet
  facet normal -0.587785 0.809017 0
    outer loop
      vertex -6.37424 7.70513 -2
      vertex -6.37424 7.70513 2
      vertex -5.35827 8.44328 -2
    endloop
  endfacet
  facet normal -0.587785 0.809017 0
    outer loop
      vertex -5.35827 8.44328 -2
      vertex -6.37424 7.70513 2
      vertex -5.35827 8.44328 2
    endloop
  endfacet
  facet normal -0.684547 0.728969 0
    outer loop
      vertex -7.28969 6.84547 -2
      vertex -7.28969 6.84547 2
      vertex -6.37424 7.70513 -2
    endloop
  endfacet
  facet normal -0.684547 0.728969 0
    outer loop
      vertex -6.37424 7.70513 -2
      vertex -7.28969 6.84547 2
      vertex -6.37424 7.70513 2
    endloop
  endfacet
  facet normal -0.770513 0.637424 0
    outer loop
      vertex -8.09017 5.87785 -2
      vertex -8.09017 5.87785 1.3
      vertex -7.28969 6.84547 -2
    endloop
  endfacet
  facet normal -0.770513 0.637424 0
    outer loop
      vertex -7.28969 6.84547 -2
      vertex -8.09017 5.87785 1.3
      vertex -7.64309 6.41828 2
    endloop
  endfacet
  facet normal -0.770513 0.637424 0
    outer loop
      vertex -7.28969 6.84547 -2
      vertex -7.64309 6.41828 2
      vertex -7.28969 6.84547 2
    endloop
  endfacet
  facet normal -0.844328 0.535827 0
    outer loop
      vertex -8.76307 4.81754 -2
      vertex -8.76307 4.81754 2
      vertex -8.09017 5.87785 -2
    endloop
  endfacet
  facet normal -0.844328 0.535827 0
    outer loop
      vertex -8.09017 5.87785 -2
      vertex -8.76307 4.81754 2
      vertex -8.46599 5.28565 2
    endloop
  endfacet
  facet normal -0.844328 0.535827 0
    outer loop
      vertex -8.09017 5.87785 -2
      vertex -8.46599 5.28565 2
      vertex -8.09017 5.87785 1.3
    endloop
  endfacet
  facet normal -0.904827 0.425779 0
    outer loop
      vertex -9.29777 3.68125 -2
      vertex -9.29777 3.68125 2
      vertex -8.76307 4.81754 -2
    endloop
  endfacet
  facet normal -0.904827 0.425779 0
    outer loop
      vertex -8.76307 4.81754 -2
      vertex -9.29777 3.68125 2
      vertex -8.76307 4.81754 2
    endloop
  endfacet
  facet normal -0.951056 0.309017 0
    outer loop
      vertex -9.68583 2.4869 -2
      vertex -9.68583 2.4869 2
      vertex -9.29777 3.68125 -2
    endloop
  endfacet
  facet normal -0.951056 0.309017 0
    outer loop
      vertex -9.29777 3.68125 -2
      vertex -9.68583 2.4869 2
      vertex -9.29777 3.68125 2
    endloop
  endfacet
  facet normal -0.982287 0.187381 0
    outer loop
      vertex -9.92115 1.25333 -2
      vertex -9.92115 1.25333 2
      vertex -9.68583 2.4869 -2
    endloop
  endfacet
  facet normal -0.982287 0.187381 0
    outer loop
      vertex -9.68583 2.4869 -2
      vertex -9.92115 1.25333 2
      vertex -9.68583 2.4869 2
    endloop
  endfacet
  facet normal 0.994522 -0.104529 0
    outer loop
      vertex -1.56504 0.332659 -2
      vertex -1.56504 0.332659 0
      vertex -1.6 0 0
    endloop
  endfacet
  facet normal 0.994522 -0.104529 0
    outer loop
      vertex -1.6 0 -2
      vertex -1.56504 0.332659 -2
      vertex -1.6 0 0
    endloop
  endfacet
  facet normal 0.994522 0.104529 0
    outer loop
      vertex -1.6 0 0
      vertex -1.56504 -0.332659 0
      vertex -1.56504 -0.332659 -2
    endloop
  endfacet
  facet normal 0.994522 0.104529 0
    outer loop
      vertex -1.6 0 -2
      vertex -1.6 0 0
      vertex -1.56504 -0.332659 -2
    endloop
  endfacet
  facet normal 0.951057 -0.309016 0
    outer loop
      vertex -1.46167 0.650779 -2
      vertex -1.46167 0.650779 0
      vertex -1.56504 0.332659 0
    endloop
  endfacet
  facet normal 0.951057 -0.309016 0
    outer loop
      vertex -1.56504 0.332659 -2
      vertex -1.46167 0.650779 -2
      vertex -1.56504 0.332659 0
    endloop
  endfacet
  facet normal 0.866024 -0.500002 0
    outer loop
      vertex -1.29443 0.940456 -2
      vertex -1.29443 0.940456 0
      vertex -1.46167 0.650779 0
    endloop
  endfacet
  facet normal 0.866024 -0.500002 0
    outer loop
      vertex -1.46167 0.650779 -2
      vertex -1.29443 0.940456 -2
      vertex -1.46167 0.650779 0
    endloop
  endfacet
  facet normal 0.743146 -0.669129 0
    outer loop
      vertex -1.07061 1.18903 -2
      vertex -1.07061 1.18903 0
      vertex -1.29443 0.940456 0
    endloop
  endfacet
  facet normal 0.743146 -0.669129 0
    outer loop
      vertex -1.29443 0.940456 -2
      vertex -1.07061 1.18903 -2
      vertex -1.29443 0.940456 0
    endloop
  endfacet
  facet normal 0.587785 -0.809017 0
    outer loop
      vertex -0.8 1.38564 -2
      vertex -0.8 1.38564 0
      vertex -1.07061 1.18903 0
    endloop
  endfacet
  facet normal 0.587785 -0.809017 0
    outer loop
      vertex -1.07061 1.18903 -2
      vertex -0.8 1.38564 -2
      vertex -1.07061 1.18903 0
    endloop
  endfacet
  facet normal 0.406734 -0.913546 0
    outer loop
      vertex -0.494427 1.52169 -2
      vertex -0.494427 1.52169 0
      vertex -0.8 1.38564 0
    endloop
  endfacet
  facet normal 0.406734 -0.913546 0
    outer loop
      vertex -0.8 1.38564 -2
      vertex -0.494427 1.52169 -2
      vertex -0.8 1.38564 0
    endloop
  endfacet
  facet normal 0.207913 -0.978147 0
    outer loop
      vertex -0.167246 1.59123 -2
      vertex -0.167246 1.59123 0
      vertex -0.494427 1.52169 0
    endloop
  endfacet
  facet normal 0.207913 -0.978147 0
    outer loop
      vertex -0.494427 1.52169 -2
      vertex -0.167246 1.59123 -2
      vertex -0.494427 1.52169 0
    endloop
  endfacet
  facet normal 0 -1 0
    outer loop
      vertex 0.167246 1.59123 -2
      vertex 0.167246 1.59123 0
      vertex -0.167246 1.59123 0
    endloop
  endfacet
  facet normal 0 -1 0
    outer loop
      vertex -0.167246 1.59123 -2
      vertex 0.167246 1.59123 -2
      vertex -0.167246 1.59123 0
    endloop
  endfacet
  facet normal -0.207913 -0.978147 0
    outer loop
      vertex 0.494427 1.52169 -2
      vertex 0.494427 1.52169 0
      vertex 0.167246 1.59123 0
    endloop
  endfacet
  facet normal -0.207913 -0.978147 0
    outer loop
      vertex 0.167246 1.59123 -2
      vertex 0.494427 1.52169 -2
      vertex 0.167246 1.59123 0
    endloop
  endfacet
  facet normal -0.406734 -0.913546 0
    outer loop
      vertex 0.8 1.38564 -2
      vertex 0.8 1.38564 0
      vertex 0.494427 1.52169 0
    endloop
  endfacet
  facet normal -0.406734 -0.913546 0
    outer loop
      vertex 0.494427 1.52169 -2
      vertex 0.8 1.38564 -2
      vertex 0.494427 1.52169 0
    endloop
  endfacet
  facet normal -0.587785 -0.809017 0
    outer loop
      vertex 1.07061 1.18903 -2
      vertex 1.07061 1.18903 0
      vertex 0.8 1.38564 0
    endloop
  endfacet
  facet normal -0.587785 -0.809017 0
    outer loop
      vertex 0.8 1.38564 -2
      vertex 1.07061 1.18903 -2
      vertex 0.8 1.38564 0
    endloop
  endfacet
  facet normal -0.743146 -0.669129 0
    outer loop
      vertex 1.29443 0.940456 0
      vertex 1.07061 1.18903 0
      vertex 1.29443 0.940456 -2
    endloop
  endfacet
  facet normal -0.743146 -0.669129 0
    outer loop
      vertex 1.29443 0.940456 -2
      vertex 1.07061 1.18903 0
      vertex 1.07061 1.18903 -2
    endloop
  endfacet
  facet normal -0.866024 -0.500002 0
    outer loop
      vertex 1.46167 0.650779 0
      vertex 1.29443 0.940456 0
      vertex 1.46167 0.650779 -2
    endloop
  endfacet
  facet normal -0.866024 -0.500002 0
    outer loop
      vertex 1.46167 0.650779 -2
      vertex 1.29443 0.940456 0
      vertex 1.29443 0.940456 -2
    endloop
  endfacet
  facet normal -0.951057 -0.309016 0
    outer loop
      vertex 1.56504 0.332659 0
      vertex 1.46167 0.650779 0
      vertex 1.56504 0.332659 -2
    endloop
  endfacet
  facet normal -0.951057 -0.309016 0
    outer loop
      vertex 1.56504 0.332659 -2
      vertex 1.46167 0.650779 0
      vertex 1.46167 0.650779 -2
    endloop
  endfacet
  facet normal -0.994522 -0.104529 0
    outer loop
      vertex 1.6 0 0
      vertex 1.56504 0.332659 0
      vertex 1.6 0 -2
    endloop
  endfacet
  facet normal -0.994522 -0.104529 0
    outer loop
      vertex 1.6 0 -2
      vertex 1.56504 0.332659 0
      vertex 1.56504 0.332659 -2
    endloop
  endfacet
  facet normal -0.994522 0.104529 0
    outer loop
      vertex 1.6 0 0
      vertex 1.6 0 -2
      vertex 1.56504 -0.332659 0
    endloop
  endfacet
  facet normal -0.994522 0.104529 0
    outer loop
      vertex 1.56504 -0.332659 0
      vertex 1.6 0 -2
      vertex 1.56504 -0.332659 -2
    endloop
  endfacet
  facet normal -0.951057 0.309016 0
    outer loop
      vertex 1.56504 -0.332659 0
      vertex 1.56504 -0.332659 -2
      vertex 1.46167 -0.650779 0
    endloop
  endfacet
  facet normal -0.951057 0.309016 0
    outer loop
      vertex 1.46167 -0.650779 0
      vertex 1.56504 -0.332659 -2
      vertex 1.46167 -0.650779 -2
    endloop
  endfacet
  facet normal -0.866024 0.500002 0
    outer loop
      vertex 1.46167 -0.650779 0
      vertex 1.46167 -0.650779 -2
      vertex 1.29443 -0.940456 0
    endloop
  endfacet
  facet normal -0.866024 0.500002 0
    outer loop
      vertex 1.29443 -0.940456 0
      vertex 1.46167 -0.650779 -2
      vertex 1.29443 -0.940456 -2
    endloop
  endfacet
  facet normal -0.743146 0.669129 0
    outer loop
      vertex 1.29443 -0.940456 0
      vertex 1.29443 -0.940456 -2
      vertex 1.07061 -1.18903 0
    endloop
  endfacet
  facet normal -0.743146 0.669129 0
    outer loop
      vertex 1.07061 -1.18903 0
      vertex 1.29443 -0.940456 -2
      vertex 1.07061 -1.18903 -2
    endloop
  endfacet
  facet normal -0.587785 0.809017 0
    outer loop
      vertex 1.07061 -1.18903 0
      vertex 1.07061 -1.18903 -2
      vertex 0.8 -1.38564 0
    endloop
  endfacet
  facet normal -0.587785 0.809017 0
    outer loop
      vertex 0.8 -1.38564 0
      vertex 1.07061 -1.18903 -2
      vertex 0.8 -1.38564 -2
    endloop
  endfacet
  facet normal -0.406734 0.913546 0
    outer loop
      vertex 0.8 -1.38564 0
      vertex 0.8 -1.38564 -2
      vertex 0.494427 -1.52169 0
    endloop
  endfacet
  facet normal -0.406734 0.913546 0
    outer loop
      vertex 0.494427 -1.52169 0
      vertex 0.8 -1.38564 -2
      vertex 0.494427 -1.52169 -2
    endloop
  endfacet
  facet normal -0.207913 0.978147 0
    outer loop
      vertex 0.494427 -1.52169 0
      vertex 0.494427 -1.52169 -2
      vertex 0.167246 -1.59123 0
    endloop
  endfacet
  facet normal -0.207913 0.978147 0
    outer loop
      vertex 0.167246 -1.59123 0
      vertex 0.494427 -1.52169 -2
      vertex 0.167246 -1.59123 -2
    endloop
  endfacet
  facet normal 0 1 0
    outer loop
      vertex 0.167246 -1.59123 0
      vertex 0.167246 -1.59123 -2
      vertex -0.167246 -1.59123 0
    endloop
  endfacet
  facet normal 0 1 0
    outer loop
      vertex -0.167246 -1.59123 0
      vertex 0.167246 -1.59123 -2
      vertex -0.167246 -1.59123 -2
    endloop
  endfacet
  facet normal 0.207913 0.978147 0
    outer loop
      vertex -0.167246 -1.59123 0
      vertex -0.167246 -1.59123 -2
      vertex -0.494427 -1.52169 0
    endloop
  endfacet
  facet normal 0.207913 0.978147 0
    outer loop
      vertex -0.494427 -1.52169 0
      vertex -0.167246 -1.59123 -2
      vertex -0.494427 -1.52169 -2
    endloop
  endfacet
  facet normal 0.406734 0.913546 0
    outer loop
      vertex -0.494427 -1.52169 0
      vertex -0.494427 -1.52169 -2
      vertex -0.8 -1.38564 0
    endloop
  endfacet
  facet normal 0.406734 0.913546 0
    outer loop
      vertex -0.8 -1.38564 0
      vertex -0.494427 -1.52169 -2
      vertex -0.8 -1.38564 -2
    endloop
  endfacet
  facet normal 0.587785 0.809017 0
    outer loop
      vertex -0.8 -1.38564 0
      vertex -0.8 -1.38564 -2
      vertex -1.07061 -1.18903 0
    endloop
  endfacet
  facet normal 0.587785 0.809017 0
    outer loop
      vertex -1.07061 -1.18903 0
      vertex -0.8 -1.38564 -2
      vertex -1.07061 -1.18903 -2
    endloop
  endfacet
  facet normal 0.743146 0.669129 0
    outer loop
      vertex -1.29443 -0.940456 0
      vertex -1.07061 -1.18903 0
      vertex -1.07061 -1.18903 -2
    endloop
  endfacet
  facet normal 0.743146 0.669129 0
    outer loop
      vertex -1.29443 -0.940456 -2
      vertex -1.29443 -0.940456 0
      vertex -1.07061 -1.18903 -2
    endloop
  endfacet
  facet normal 0.866024 0.500002 0
    outer loop
      vertex -1.46167 -0.650779 0
      vertex -1.29443 -0.940456 0
      vertex -1.29443 -0.940456 -2
    endloop
  endfacet
  facet normal 0.866024 0.500002 0
    outer loop
      vertex -1.46167 -0.650779 -2
      vertex -1.46167 -0.650779 0
      vertex -1.29443 -0.940456 -2
    endloop
  endfacet
  facet normal 0.951057 0.309016 0
    outer loop
      vertex -1.56504 -0.332659 0
      vertex -1.46167 -0.650779 0
      vertex -1.46167 -0.650779 -2
    endloop
  endfacet
  facet normal 0.951057 0.309016 0
    outer loop
      vertex -1.56504 -0.332659 -2
      vertex -1.56504 -0.332659 0
      vertex -1.46167 -0.650779 -2
    endloop
  endfacet
  facet normal 0 0 1
    outer loop
      vertex -4 -0.7 2
      vertex -9.95596 -0.7 2
      vertex -9.92115 -1.25333 2
    endloop
  endfacet
  facet normal 0 0 1
    outer loop
      vertex -9.29777 -3.68125 2
      vertex -4 -0.7 2
      vertex -9.68583 -2.4869 2
    endloop
  endfacet
  facet normal 0 0 1
    outer loop
      vertex -9.68583 -2.4869 2
      vertex -4 -0.7 2
      vertex -9.92115 -1.25333 2
    endloop
  endfacet
  facet normal 0 0 1
    outer loop
      vertex -8.76307 -4.81754 2
      vertex -4 -0.7 2
      vertex -9.29777 -3.68125 2
    endloop
  endfacet
  facet normal 0 0 1
    outer loop
      vertex -8.46599 -5.28565 2
      vertex -4 -0.7 2
      vertex -8.76307 -4.81754 2
    endloop
  endfacet
  facet normal 0 0 1
    outer loop
      vertex -3.64752 -1.78483 2
      vertex -4 -0.7 2
      vertex -8.46599 -5.28565 2
    endloop
  endfacet
  facet normal 0 0 1
    outer loop
      vertex -2.82462 -2.91745 2
      vertex -4 -0.7 2
      vertex -3.64752 -1.78483 2
    endloop
  endfacet
  facet normal 0 0 1
    outer loop
      vertex -1.90181 -3.58791 2
      vertex -4 -0.7 2
      vertex -2.82462 -2.91745 2
    endloop
  endfacet
  facet normal 0 0 1
    outer loop
      vertex -7.28969 -6.84547 2
      vertex -2.82462 -2.91745 2
      vertex -7.64309 -6.41828 2
    endloop
  endfacet
  facet normal 0 0 1
    outer loop
      vertex -6.37424 -7.70513 2
      vertex -2.82462 -2.91745 2
      vertex -7.28969 -6.84547 2
    endloop
  endfacet
  facet normal 0 0 1
    outer loop
      vertex -5.35827 -8.44328 2
      vertex -2.82462 -2.91745 2
      vertex -6.37424 -7.70513 2
    endloop
  endfacet
  facet normal 0 0 1
    outer loop
      vertex -4.25779 -9.04827 2
      vertex -2.82462 -2.91745 2
      vertex -5.35827 -8.44328 2
    endloop
  endfacet
  facet normal 0 0 1
    outer loop
      vertex -3.7423 -9.25237 2
      vertex -2.82462 -2.91745 2
      vertex -4.25779 -9.04827 2
    endloop
  endfacet
  facet normal 0 0 1
    outer loop
      vertex -1.90181 -3.58791 2
      vertex -2.82462 -2.91745 2
      vertex -3.7423 -9.25237 2
    endloop
  endfacet
  facet normal 0 0 1
    outer loop
      vertex -0.570328 -4.02054 2
      vertex -4 -0.7 2
      vertex -1.90181 -3.58791 2
    endloop
  endfacet
  facet normal 0 0 1
    outer loop
      vertex -1.6 -2.77128 2
      vertex -4 -0.7 2
      vertex -0.570328 -4.02054 2
    endloop
  endfacet
  facet normal 0 0 1
    outer loop
      vertex -1.87381 -9.82287 2
      vertex -0.570328 -4.02054 2
      vertex -2.41082 -9.68499 2
    endloop
  endfacet
  facet normal 0 0 1
    outer loop
      vertex -0.627905 -9.98027 2
      vertex -0.570328 -4.02054 2
      vertex -1.87381 -9.82287 2
    endloop
  endfacet
  facet normal 0 0 1
    outer loop
      vertex 0.627905 -9.98027 2
      vertex -0.570328 -4.02054 2
      vertex -0.627905 -9.98027 2
    endloop
  endfacet
  facet normal 0 0 1
    outer loop
      vertex 1.87381 -9.82287 2
      vertex -0.570328 -4.02054 2
      vertex 0.627905 -9.98027 2
    endloop
  endfacet
  facet normal 0 0 1
    outer loop
      vertex 2.41082 -9.68499 2
      vertex -0.570328 -4.02054 2
      vertex 1.87381 -9.82287 2
    endloop
  endfacet
  facet normal 0 0 1
    outer loop
      vertex 0.570328 -4.02054 2
      vertex -0.570328 -4.02054 2
      vertex 2.41082 -9.68499 2
    endloop
  endfacet
  facet normal 0 0 1
    outer loop
      vertex 4.25779 -9.04827 2
      vertex 1.90181 -3.58791 2
      vertex 3.7423 -9.25237 2
    endloop
  endfacet
  facet normal 0 0 1
    outer loop
      vertex 5.35827 -8.44328 2
      vertex 1.90181 -3.58791 2
      vertex 4.25779 -9.04827 2
    endloop
  endfacet
  facet normal 0 0 1
    outer loop
      vertex 6.37424 -7.70513 2
      vertex 1.90181 -3.58791 2
      vertex 5.35827 -8.44328 2
    endloop
  endfacet
  facet normal 0 0 1
    outer loop
      vertex 7.28969 -6.84547 2
      vertex 1.90181 -3.58791 2
      vertex 6.37424 -7.70513 2
    endloop
  endfacet
  facet normal 0 0 1
    outer loop
      vertex 7.64309 -6.41828 2
      vertex 1.90181 -3.58791 2
      vertex 7.28969 -6.84547 2
    endloop
  endfacet
  facet normal 0 0 1
    outer loop
      vertex 2.82462 -2.91745 2
      vertex 1.90181 -3.58791 2
      vertex 7.64309 -6.41828 2
    endloop
  endfacet
  facet normal 0 0 1
    outer loop
      vertex 3.2 0 2
      vertex 2.82462 -2.91745 2
      vertex 3.64752 -1.78483 2
    endloop
  endfacet
  facet normal 0 0 1
    outer loop
      vertex 3.2 0 2
      vertex 3.64752 -1.78483 2
      vertex 4 -0.7 2
    endloop
  endfacet
  facet normal 0 0 1
    outer loop
      vertex 8.76307 -4.81754 2
      vertex 3.64752 -1.78483 2
      vertex 8.46599 -5.28565 2
    endloop
  endfacet
  facet normal 0 0 1
    outer loop
      vertex 9.29777 -3.68125 2
      vertex 3.64752 -1.78483 2
      vertex 8.76307 -4.81754 2
    endloop
  endfacet
  facet normal 0 0 1
    outer loop
      vertex 9.68583 -2.4869 2
      vertex 3.64752 -1.78483 2
      vertex 9.29777 -3.68125 2
    endloop
  endfacet
  facet normal 0 0 1
    outer loop
      vertex 3.2 0 2
      vertex 1.6 -2.77128 2
      vertex 2.82462 -2.91745 2
    endloop
  endfacet
  facet normal 0 0 1
    outer loop
      vertex 1.6 2.77128 2
      vertex 3.64752 1.78483 2
      vertex 2.82462 2.91745 2
    endloop
  endfacet
  facet normal 0 0 1
    outer loop
      vertex -1.6 2.77128 2
      vertex 1.6 2.77128 2
      vertex 1.90181 3.58791 2
    endloop
  endfacet
  facet normal 0 0 1
    outer loop
      vertex 9.95596 -0.7 2
      vertex 4 -0.7 2
      vertex 9.92115 -1.25333 2
    endloop
  endfacet
  facet normal 0 0 1
    outer loop
      vertex 4 -0.7 2
      vertex 4 0.7 2
      vertex 3.2 0 2
    endloop
  endfacet
  facet normal 0 0 1
    outer loop
      vertex 9.92115 1.25333 2
      vertex 4 0.7 2
      vertex 9.95596 0.7 2
    endloop
  endfacet
  facet normal 0 0 1
    outer loop
      vertex 9.68583 2.4869 2
      vertex 4 0.7 2
      vertex 9.92115 1.25333 2
    endloop
  endfacet
  facet normal 0 0 1
    outer loop
      vertex 8.46599 5.28565 2
      vertex 3.64752 1.78483 2
      vertex 9.29777 3.68125 2
    endloop
  endfacet
  facet normal 0 0 1
    outer loop
      vertex -2.41082 9.68499 2
      vertex -0.627905 9.98027 2
      vertex -1.87381 9.82287 2
    endloop
  endfacet
  facet normal 0 0 1
    outer loop
      vertex -9.95596 0.7 2
      vertex -9.29777 3.68125 2
      vertex -9.68583 2.4869 2
    endloop
  endfacet
  facet normal 0 0 1
    outer loop
      vertex 9.29777 3.68125 2
      vertex 3.64752 1.78483 2
      vertex 9.68583 2.4869 2
    endloop
  endfacet
  facet normal 0 0 1
    outer loop
      vertex 2.82462 2.91745 2
      vertex 1.90181 3.58791 2
      vertex 1.6 2.77128 2
    endloop
  endfacet
  facet normal 0 0 1
    outer loop
      vertex 2.82462 2.91745 2
      vertex 7.64309 6.41828 2
      vertex 1.90181 3.58791 2
    endloop
  endfacet
  facet normal 0 0 1
    outer loop
      vertex -2.41082 9.68499 2
      vertex 2.41082 9.68499 2
      vertex 1.87381 9.82287 2
    endloop
  endfacet
  facet normal 0 0 1
    outer loop
      vertex -7.64309 6.41828 2
      vertex -6.37424 7.70513 2
      vertex -7.28969 6.84547 2
    endloop
  endfacet
  facet normal 0 0 1
    outer loop
      vertex -2.41082 9.68499 2
      vertex -0.570328 4.02054 2
      vertex 2.41082 9.68499 2
    endloop
  endfacet
  facet normal 0 0 1
    outer loop
      vertex -7.64309 6.41828 2
      vertex -5.35827 8.44328 2
      vertex -6.37424 7.70513 2
    endloop
  endfacet
  facet normal 0 0 1
    outer loop
      vertex -7.64309 6.41828 2
      vertex -4.25779 9.04827 2
      vertex -5.35827 8.44328 2
    endloop
  endfacet
  facet normal 0 0 1
    outer loop
      vertex -7.64309 6.41828 2
      vertex -3.7423 9.25237 2
      vertex -4.25779 9.04827 2
    endloop
  endfacet
  facet normal 0 0 1
    outer loop
      vertex -7.64309 6.41828 2
      vertex -1.90181 3.58791 2
      vertex -3.7423 9.25237 2
    endloop
  endfacet
  facet normal 0 0 1
    outer loop
      vertex -7.64309 6.41828 2
      vertex -2.82462 2.91745 2
      vertex -1.90181 3.58791 2
    endloop
  endfacet
  facet normal 0 0 1
    outer loop
      vertex -9.95596 0.7 2
      vertex -9.68583 2.4869 2
      vertex -9.92115 1.25333 2
    endloop
  endfacet
  facet normal 0 0 1
    outer loop
      vertex 3.64752 1.78483 2
      vertex 4 0.7 2
      vertex 9.68583 2.4869 2
    endloop
  endfacet
  facet normal 0 0 1
    outer loop
      vertex -9.95596 0.7 2
      vertex -8.76307 4.81754 2
      vertex -9.29777 3.68125 2
    endloop
  endfacet
  facet normal 0 0 1
    outer loop
      vertex -2.82462 2.91745 2
      vertex -1.6 2.77128 2
      vertex 0.570328 4.02054 2
    endloop
  endfacet
  facet normal 0 0 1
    outer loop
      vertex -2.82462 2.91745 2
      vertex -3.64752 1.78483 2
      vertex -1.6 2.77128 2
    endloop
  endfacet
  facet normal 0 0 1
    outer loop
      vertex -9.95596 0.7 2
      vertex -8.46599 5.28565 2
      vertex -8.76307 4.81754 2
    endloop
  endfacet
  facet normal 0 0 1
    outer loop
      vertex -9.95596 0.7 2
      vertex -3.64752 1.78483 2
      vertex -8.46599 5.28565 2
    endloop
  endfacet
  facet normal 0 0 1
    outer loop
      vertex 1.6 2.77128 2
      vertex 4 0.7 2
      vertex 3.64752 1.78483 2
    endloop
  endfacet
  facet normal 0 0 1
    outer loop
      vertex -9.95596 0.7 2
      vertex -4 0.7 2
      vertex -3.64752 1.78483 2
    endloop
  endfacet
  facet normal 0 0 1
    outer loop
      vertex -2.82462 2.91745 2
      vertex 0.570328 4.02054 2
      vertex -0.570328 4.02054 2
    endloop
  endfacet
  facet normal 0 0 1
    outer loop
      vertex -1.6 -2.77128 2
      vertex -3.2 0 2
      vertex -4 -0.7 2
    endloop
  endfacet
  facet normal 0 0 1
    outer loop
      vertex 1.6 -2.77128 2
      vertex -1.6 -2.77128 2
      vertex 0.570328 -4.02054 2
    endloop
  endfacet
  facet normal 0 0 1
    outer loop
      vertex -3.2 0 2
      vertex -1.6 2.77128 2
      vertex -3.64752 1.78483 2
    endloop
  endfacet
  facet normal 0 0 1
    outer loop
      vertex 0.570328 -4.02054 2
      vertex -1.6 -2.77128 2
      vertex -0.570328 -4.02054 2
    endloop
  endfacet
  facet normal 0 0 1
    outer loop
      vertex 4 -0.7 2
      vertex 9.68583 -2.4869 2
      vertex 9.92115 -1.25333 2
    endloop
  endfacet
  facet normal 0 0 1
    outer loop
      vertex 4 -0.7 2
      vertex 3.64752 -1.78483 2
      vertex 9.68583 -2.4869 2
    endloop
  endfacet
  facet normal 0 0 1
    outer loop
      vertex 8.46599 5.28565 2
      vertex 9.29777 3.68125 2
      vertex 8.76307 4.81754 2
    endloop
  endfacet
  facet normal 0 0 1
    outer loop
      vertex 0.570328 4.02054 2
      vertex 2.41082 9.68499 2
      vertex -0.570328 4.02054 2
    endloop
  endfacet
  facet normal 0 0 1
    outer loop
      vertex -2.41082 9.68499 2
      vertex 1.87381 9.82287 2
      vertex 0.627905 9.98027 2
    endloop
  endfacet
  facet normal 0 0 1
    outer loop
      vertex -0.570328 4.02054 2
      vertex -1.90181 3.58791 2
      vertex -2.82462 2.91745 2
    endloop
  endfacet
  facet normal 0 0 1
    outer loop
      vertex 1.6 2.77128 2
      vertex 3.2 0 2
      vertex 4 0.7 2
    endloop
  endfacet
  facet normal 0 0 1
    outer loop
      vertex 2.82462 -2.91745 2
      vertex 1.6 -2.77128 2
      vertex 1.90181 -3.58791 2
    endloop
  endfacet
  facet normal 0 0 1
    outer loop
      vertex -3.2 0 2
      vertex -3.64752 1.78483 2
      vertex -4 0.7 2
    endloop
  endfacet
  facet normal 0 0 1
    outer loop
      vertex 1.6 -2.77128 2
      vertex 0.570328 -4.02054 2
      vertex 1.90181 -3.58791 2
    endloop
  endfacet
  facet normal 0 0 1
    outer loop
      vertex 1.90181 3.58791 2
      vertex 0.570328 4.02054 2
      vertex -1.6 2.77128 2
    endloop
  endfacet
  facet normal 0 0 1
    outer loop
      vertex -4 0.7 2
      vertex -4 -0.7 2
      vertex -3.2 0 2
    endloop
  endfacet
  facet normal 0 0 1
    outer loop
      vertex -2.41082 9.68499 2
      vertex 0.627905 9.98027 2
      vertex -0.627905 9.98027 2
    endloop
  endfacet
  facet normal 0 0 1
    outer loop
      vertex 3.7423 9.25237 2
      vertex 5.35827 8.44328 2
      vertex 4.25779 9.04827 2
    endloop
  endfacet
  facet normal 0 0 1
    outer loop
      vertex 3.7423 9.25237 2
      vertex 6.37424 7.70513 2
      vertex 5.35827 8.44328 2
    endloop
  endfacet
  facet normal 0 0 1
    outer loop
      vertex 3.7423 9.25237 2
      vertex 7.28969 6.84547 2
      vertex 6.37424 7.70513 2
    endloop
  endfacet
  facet normal 0 0 1
    outer loop
      vertex 3.7423 9.25237 2
      vertex 7.64309 6.41828 2
      vertex 7.28969 6.84547 2
    endloop
  endfacet
  facet normal 0 0 1
    outer loop
      vertex 3.7423 9.25237 2
      vertex 1.90181 3.58791 2
      vertex 7.64309 6.41828 2
    endloop
  endfacet
  facet normal -8.65927e-17 -0.707107 0.707107
    outer loop
      vertex -4 4.89843e-16 1.3
      vertex -4 0.7 2
      vertex -9.95596 0.7 2
    endloop
  endfacet
  facet normal -8.65927e-17 -0.707107 0.707107
    outer loop
      vertex -10 1.22461e-15 1.3
      vertex -4 4.89843e-16 1.3
      vertex -9.95596 0.7 2
    endloop
  endfacet
  facet normal 8.65927e-17 0.707107 0.707107
    outer loop
      vertex -4 -0.7 2
      vertex -4 4.89843e-16 1.3
      vertex -9.95596 -0.7 2
    endloop
  endfacet
  facet normal 8.65927e-17 0.707107 0.707107
    outer loop
      vertex -9.95596 -0.7 2
      vertex -4 4.89843e-16 1.3
      vertex -10 1.22461e-15 1.3
    endloop
  endfacet
  facet normal 8.65927e-17 0.707107 0.707107
    outer loop
      vertex -9.95596 -0.7 2
      vertex -10 1.22461e-15 1.3
      vertex -10 0 1.3
    endloop
  endfacet
  facet normal 0.415627 -0.572061 0.707107
    outer loop
      vertex -8.09017 -5.87785 1.3
      vertex -3.23607 -2.35114 1.3
      vertex -3.64752 -1.78483 2
    endloop
  endfacet
  facet normal 0.415627 -0.572061 0.707107
    outer loop
      vertex -8.46599 -5.28565 2
      vertex -8.09017 -5.87785 1.3
      vertex -3.64752 -1.78483 2
    endloop
  endfacet
  facet normal -0.415627 0.572061 0.707107
    outer loop
      vertex -8.09017 -5.87785 1.3
      vertex -7.64309 -6.41828 2
      vertex -2.82462 -2.91745 2
    endloop
  endfacet
  facet normal -0.415627 0.572061 0.707107
    outer loop
      vertex -3.23607 -2.35114 1.3
      vertex -8.09017 -5.87785 1.3
      vertex -2.82462 -2.91745 2
    endloop
  endfacet
  facet normal 0.672499 -0.218508 0.707107
    outer loop
      vertex -3.09017 -9.51056 1.3
      vertex -3.09017 -9.51057 1.3
      vertex -1.23607 -3.80423 1.3
    endloop
  endfacet
  facet normal 0.672499 -0.218508 0.707107
    outer loop
      vertex -3.7423 -9.25237 2
      vertex -3.09017 -9.51056 1.3
      vertex -1.90181 -3.58791 2
    endloop
  endfacet
  facet normal 0.672499 -0.218508 0.707107
    outer loop
      vertex -1.90181 -3.58791 2
      vertex -3.09017 -9.51056 1.3
      vertex -1.23607 -3.80423 1.3
    endloop
  endfacet
  facet normal -0.672499 0.218508 0.707107
    outer loop
      vertex -2.41082 -9.68499 2
      vertex -0.570328 -4.02054 2
      vertex -1.23607 -3.80423 1.3
    endloop
  endfacet
  facet normal -0.672499 0.218508 0.707107
    outer loop
      vertex -3.09017 -9.51057 1.3
      vertex -2.41082 -9.68499 2
      vertex -1.23607 -3.80423 1.3
    endloop
  endfacet
  facet normal 0.672499 0.218508 0.707107
    outer loop
      vertex 2.41082 -9.68499 2
      vertex 3.09017 -9.51057 1.3
      vertex 1.23607 -3.80423 1.3
    endloop
  endfacet
  facet normal 0.672499 0.218508 0.707107
    outer loop
      vertex 0.570328 -4.02054 2
      vertex 2.41082 -9.68499 2
      vertex 1.23607 -3.80423 1.3
    endloop
  endfacet
  facet normal -0.672499 -0.218508 0.707107
    outer loop
      vertex 3.09017 -9.51057 1.3
      vertex 3.09017 -9.51056 1.3
      vertex 3.7423 -9.25237 2
    endloop
  endfacet
  facet normal -0.672499 -0.218508 0.707107
    outer loop
      vertex 1.23607 -3.80423 1.3
      vertex 3.09017 -9.51057 1.3
      vertex 1.90181 -3.58791 2
    endloop
  endfacet
  facet normal -0.672499 -0.218508 0.707107
    outer loop
      vertex 1.90181 -3.58791 2
      vertex 3.09017 -9.51057 1.3
      vertex 3.7423 -9.25237 2
    endloop
  endfacet
  facet normal 0.415627 0.572061 0.707107
    outer loop
      vertex 2.82462 -2.91745 2
      vertex 7.64309 -6.41828 2
      vertex 3.23607 -2.35114 1.3
    endloop
  endfacet
  facet normal 0.415627 0.572061 0.707107
    outer loop
      vertex 3.23607 -2.35114 1.3
      vertex 7.64309 -6.41828 2
      vertex 8.09017 -5.87785 1.3
    endloop
  endfacet
  facet normal -0.415627 -0.572061 0.707107
    outer loop
      vertex 8.09017 -5.87785 1.3
      vertex 8.46599 -5.28565 2
      vertex 3.64752 -1.78483 2
    endloop
  endfacet
  facet normal -0.415627 -0.572061 0.707107
    outer loop
      vertex 3.23607 -2.35114 1.3
      vertex 8.09017 -5.87785 1.3
      vertex 3.64752 -1.78483 2
    endloop
  endfacet
  facet normal 0 0.707107 0.707107
    outer loop
      vertex 9.95596 -0.7 2
      vertex 10 0 1.3
      vertex 4 0 1.3
    endloop
  endfacet
  facet normal 0 0.707107 0.707107
    outer loop
      vertex 4 -0.7 2
      vertex 9.95596 -0.7 2
      vertex 4 0 1.3
    endloop
  endfacet
  facet normal 0 -0.707107 0.707107
    outer loop
      vertex 10 0 1.3
      vertex 9.95596 0.7 2
      vertex 4 0.7 2
    endloop
  endfacet
  facet normal 0 -0.707107 0.707107
    outer loop
      vertex 4 0 1.3
      vertex 10 0 1.3
      vertex 4 0.7 2
    endloop
  endfacet
  facet normal -0.415627 0.572061 0.707107
    outer loop
      vertex 3.64752 1.78483 2
      vertex 8.46599 5.28565 2
      vertex 8.09017 5.87785 1.3
    endloop
  endfacet
  facet normal -0.415627 0.572061 0.707107
    outer loop
      vertex 3.23607 2.35114 1.3
      vertex 3.64752 1.78483 2
      vertex 8.09017 5.87785 1.3
    endloop
  endfacet
  facet normal 0.415627 -0.572061 0.707107
    outer loop
      vertex 2.82462 2.91745 2
      vertex 3.23607 2.35114 1.3
      vertex 7.64309 6.41828 2
    endloop
  endfacet
  facet normal 0.415627 -0.572061 0.707107
    outer loop
      vertex 7.64309 6.41828 2
      vertex 3.23607 2.35114 1.3
      vertex 8.09017 5.87785 1.3
    endloop
  endfacet
  facet normal -0.672499 0.218508 0.707107
    outer loop
      vertex 1.90181 3.58791 2
      vertex 3.7423 9.25237 2
      vertex 3.09017 9.51056 1.3
    endloop
  endfacet
  facet normal -0.672499 0.218508 0.707107
    outer loop
      vertex 1.23607 3.80423 1.3
      vertex 1.90181 3.58791 2
      vertex 3.09017 9.51057 1.3
    endloop
  endfacet
  facet normal -0.672499 0.218508 0.707107
    outer loop
      vertex 3.09017 9.51057 1.3
      vertex 1.90181 3.58791 2
      vertex 3.09017 9.51056 1.3
    endloop
  endfacet
  facet normal 0.672499 -0.218508 0.707107
    outer loop
      vertex 1.23607 3.80423 1.3
      vertex 3.09017 9.51057 1.3
      vertex 2.41082 9.68499 2
    endloop
  endfacet
  facet normal 0.672499 -0.218508 0.707107
    outer loop
      vertex 0.570328 4.02054 2
      vertex 1.23607 3.80423 1.3
      vertex 2.41082 9.68499 2
    endloop
  endfacet
  facet normal -0.672499 -0.218508 0.707107
    outer loop
      vertex -1.23607 3.80423 1.3
      vertex -0.570328 4.02054 2
      vertex -2.41082 9.68499 2
    endloop
  endfacet
  facet normal -0.672499 -0.218508 0.707107
    outer loop
      vertex -3.09017 9.51057 1.3
      vertex -1.23607 3.80423 1.3
      vertex -2.41082 9.68499 2
    endloop
  endfacet
  facet normal 0.672499 0.218508 0.707107
    outer loop
      vertex -1.90181 3.58791 2
      vertex -1.23607 3.80423 1.3
      vertex -3.09017 9.51057 1.3
    endloop
  endfacet
  facet normal 0.672499 0.218508 0.707107
    outer loop
      vertex -3.7423 9.25237 2
      vertex -1.90181 3.58791 2
      vertex -3.09017 9.51056 1.3
    endloop
  endfacet
  facet normal 0.672499 0.218508 0.707107
    outer loop
      vertex -3.09017 9.51056 1.3
      vertex -1.90181 3.58791 2
      vertex -3.09017 9.51057 1.3
    endloop
  endfacet
  facet normal -0.415627 -0.572061 0.707107
    outer loop
      vertex -3.23607 2.35114 1.3
      vertex -2.82462 2.91745 2
      vertex -7.64309 6.41828 2
    endloop
  endfacet
  facet normal -0.415627 -0.572061 0.707107
    outer loop
      vertex -8.09017 5.87785 1.3
      vertex -3.23607 2.35114 1.3
      vertex -7.64309 6.41828 2
    endloop
  endfacet
  facet normal 0.415627 0.572061 0.707107
    outer loop
      vertex -3.64752 1.78483 2
      vertex -3.23607 2.35114 1.3
      vertex -8.09017 5.87785 1.3
    endloop
  endfacet
  facet normal 0.415627 0.572061 0.707107
    outer loop
      vertex -8.46599 5.28565 2
      vertex -3.64752 1.78483 2
      vertex -8.09017 5.87785 1.3
    endloop
  endfacet
  facet normal 0 0 1
    outer loop
      vertex 0.8 -1.38564 0
      vertex 1.6 -2.77128 0
      vertex 3.2 0 0
    endloop
  endfacet
  facet normal 0 0 1
    outer loop
      vertex 0.8 -1.38564 0
      vertex 0.494427 -1.52169 0
      vertex -1.6 -2.77128 0
    endloop
  endfacet
  facet normal 0 0 1
    outer loop
      vertex 0.167246 -1.59123 0
      vertex -0.167246 -1.59123 0
      vertex -1.6 -2.77128 0
    endloop
  endfacet
  facet normal 0 0 1
    outer loop
      vertex -3.2 0 0
      vertex -1.6 0 0
      vertex -1.6 2.77128 0
    endloop
  endfacet
  facet normal 0 0 1
    outer loop
      vertex -3.2 0 0
      vertex -1.6 -2.77128 0
      vertex -1.6 0 0
    endloop
  endfacet
  facet normal 0 0 1
    outer loop
      vertex 0.167246 1.59123 0
      vertex 0.494427 1.52169 0
      vertex 1.6 2.77128 0
    endloop
  endfacet
  facet normal 0 0 1
    outer loop
      vertex -1.6 2.77128 0
      vertex -1.6 0 0
      vertex -1.56504 0.332659 0
    endloop
  endfacet
  facet normal 0 0 1
    outer loop
      vertex 0.8 1.38564 0
      vertex 1.07061 1.18903 0
      vertex 1.6 2.77128 0
    endloop
  endfacet
  facet normal 0 0 1
    outer loop
      vertex -1.6 2.77128 0
      vertex -1.56504 0.332659 0
      vertex -1.46167 0.650779 0
    endloop
  endfacet
  facet normal 0 0 1
    outer loop
      vertex -1.6 2.77128 0
      vertex -1.46167 0.650779 0
      vertex -1.29443 0.940456 0
    endloop
  endfacet
  facet normal 0 0 1
    outer loop
      vertex -0.494427 1.52169 0
      vertex -0.167246 1.59123 0
      vertex 1.6 2.77128 0
    endloop
  endfacet
  facet normal 0 0 1
    outer loop
      vertex -1.6 2.77128 0
      vertex -1.29443 0.940456 0
      vertex -1.07061 1.18903 0
    endloop
  endfacet
  facet normal 0 0 1
    outer loop
      vertex -1.6 2.77128 0
      vertex -0.8 1.38564 0
      vertex 1.6 2.77128 0
    endloop
  endfacet
  facet normal 0 0 1
    outer loop
      vertex -1.6 2.77128 0
      vertex -1.07061 1.18903 0
      vertex -0.8 1.38564 0
    endloop
  endfacet
  facet normal 0 0 1
    outer loop
      vertex 0.494427 1.52169 0
      vertex 0.8 1.38564 0
      vertex 1.6 2.77128 0
    endloop
  endfacet
  facet normal 0 0 1
    outer loop
      vertex 1.6 2.77128 0
      vertex 1.07061 1.18903 0
      vertex 3.2 0 0
    endloop
  endfacet
  facet normal 0 0 1
    outer loop
      vertex 1.07061 1.18903 0
      vertex 1.29443 0.940456 0
      vertex 3.2 0 0
    endloop
  endfacet
  facet normal 0 0 1
    outer loop
      vertex 1.29443 0.940456 0
      vertex 1.46167 0.650779 0
      vertex 3.2 0 0
    endloop
  endfacet
  facet normal 0 0 1
    outer loop
      vertex 1.46167 0.650779 0
      vertex 1.56504 0.332659 0
      vertex 3.2 0 0
    endloop
  endfacet
  facet normal 0 0 1
    outer loop
      vertex 1.56504 0.332659 0
      vertex 1.6 0 0
      vertex 3.2 0 0
    endloop
  endfacet
  facet normal 0 0 1
    outer loop
      vertex -0.494427 -1.52169 0
      vertex -0.8 -1.38564 0
      vertex -1.6 -2.77128 0
    endloop
  endfacet
  facet normal 0 0 1
    outer loop
      vertex 1.6 0 0
      vertex 1.56504 -0.332659 0
      vertex 3.2 0 0
    endloop
  endfacet
  facet normal 0 0 1
    outer loop
      vertex 1.56504 -0.332659 0
      vertex 1.46167 -0.650779 0
      vertex 3.2 0 0
    endloop
  endfacet
  facet normal 0 0 1
    outer loop
      vertex 1.46167 -0.650779 0
      vertex 1.29443 -0.940456 0
      vertex 3.2 0 0
    endloop
  endfacet
  facet normal 0 0 1
    outer loop
      vertex 1.29443 -0.940456 0
      vertex 1.07061 -1.18903 0
      vertex 3.2 0 0
    endloop
  endfacet
  facet normal 0 0 1
    outer loop
      vertex -1.6 -2.77128 0
      vertex 1.6 -2.77128 0
      vertex 0.8 -1.38564 0
    endloop
  endfacet
  facet normal 0 0 1
    outer loop
      vertex -0.8 -1.38564 0
      vertex -1.07061 -1.18903 0
      vertex -1.6 -2.77128 0
    endloop
  endfacet
  facet normal 0 0 1
    outer loop
      vertex 0.494427 -1.52169 0
      vertex 0.167246 -1.59123 0
      vertex -1.6 -2.77128 0
    endloop
  endfacet
  facet normal 0 0 1
    outer loop
      vertex 1.07061 -1.18903 0
      vertex 0.8 -1.38564 0
      vertex 3.2 0 0
    endloop
  endfacet
  facet normal 0 0 1
    outer loop
      vertex -1.29443 -0.940456 0
      vertex -1.6 -2.77128 0
      vertex -1.07061 -1.18903 0
    endloop
  endfacet
  facet normal 0 0 1
    outer loop
      vertex -1.46167 -0.650779 0
      vertex -1.6 -2.77128 0
      vertex -1.29443 -0.940456 0
    endloop
  endfacet
  facet normal 0 0 1
    outer loop
      vertex -1.56504 -0.332659 0
      vertex -1.6 -2.77128 0
      vertex -1.46167 -0.650779 0
    endloop
  endfacet
  facet normal 0 0 1
    outer loop
      vertex -1.6 0 0
      vertex -1.6 -2.77128 0
      vertex -1.56504 -0.332659 0
    endloop
  endfacet
  facet normal 0 0 1
    outer loop
      vertex -0.8 1.38564 0
      vertex -0.494427 1.52169 0
      vertex 1.6 2.77128 0
    endloop
  endfacet
  facet normal 0 0 1
    outer loop
      vertex -0.167246 1.59123 0
      vertex 0.167246 1.59123 0
      vertex 1.6 2.77128 0
    endloop
  endfacet
  facet normal 0 0 1
    outer loop
      vertex -0.167246 -1.59123 0
      vertex -0.494427 -1.52169 0
      vertex -1.6 -2.77128 0
    endloop
  endfacet
  facet normal -1 1.22461e-16 0
    outer loop
      vertex -4 0.7 2
      vertex -4 4.89843e-16 1.3
      vertex -4 -0.7 2
    endloop
  endfacet
  facet normal -0.809017 0.587785 0
    outer loop
      vertex -2.82462 2.91745 2
      vertex -3.23607 2.35114 1.3
      vertex -3.64752 1.78483 2
    endloop
  endfacet
  facet normal -0.309017 0.951057 0
    outer loop
      vertex -0.570328 4.02054 2
      vertex -1.23607 3.80423 1.3
      vertex -1.90181 3.58791 2
    endloop
  endfacet
  facet normal 0.309017 0.951057 0
    outer loop
      vertex 1.90181 3.58791 2
      vertex 1.23607 3.80423 1.3
      vertex 0.570328 4.02054 2
    endloop
  endfacet
  facet normal 0.809017 0.587785 0
    outer loop
      vertex 3.64752 1.78483 2
      vertex 3.23607 2.35114 1.3
      vertex 2.82462 2.91745 2
    endloop
  endfacet
  facet normal 1 0 0
    outer loop
      vertex 4 0 1.3
      vertex 4 0.7 2
      vertex 4 -0.7 2
    endloop
  endfacet
  facet normal 0.809017 -0.587785 0
    outer loop
      vertex 3.23607 -2.35114 1.3
      vertex 3.64752 -1.78483 2
      vertex 2.82462 -2.91745 2
    endloop
  endfacet
  facet normal 0.309017 -0.951057 0
    outer loop
      vertex 1.23607 -3.80423 1.3
      vertex 1.90181 -3.58791 2
      vertex 0.570328 -4.02054 2
    endloop
  endfacet
  facet normal -0.309017 -0.951057 0
    outer loop
      vertex -1.23607 -3.80423 1.3
      vertex -0.570328 -4.02054 2
      vertex -1.90181 -3.58791 2
    endloop
  endfacet
  facet normal -0.809017 -0.587785 0
    outer loop
      vertex -3.23607 -2.35114 1.3
      vertex -2.82462 -2.91745 2
      vertex -3.64752 -1.78483 2
    endloop
  endfacet
  facet normal 0.866025 0.5 0
    outer loop
      vertex -3.2 0 2
      vertex -1.6 -2.77128 2
      vertex -1.6 -2.77128 0
    endloop
  endfacet
  facet normal 0.866025 0.5 0
    outer loop
      vertex -3.2 0 0
      vertex -3.2 0 2
      vertex -1.6 -2.77128 0
    endloop
  endfacet
  facet normal 0 1 0
    outer loop
      vertex 1.6 -2.77128 2
      vertex 1.6 -2.77128 0
      vertex -1.6 -2.77128 2
    endloop
  endfacet
  facet normal 0 1 0
    outer loop
      vertex -1.6 -2.77128 2
      vertex 1.6 -2.77128 0
      vertex -1.6 -2.77128 0
    endloop
  endfacet
  facet normal -0.866025 0.5 0
    outer loop
      vertex 3.2 0 2
      vertex 3.2 0 0
      vertex 1.6 -2.77128 2
    endloop
  endfacet
  facet normal -0.866025 0.5 0
    outer loop
      vertex 1.6 -2.77128 2
      vertex 3.2 0 0
      vertex 1.6 -2.77128 0
    endloop
  endfacet
  facet normal -0.866025 -0.5 0
    outer loop
      vertex 3.2 0 2
      vertex 1.6 2.77128 2
      vertex 3.2 0 0
    endloop
  endfacet
  facet normal -0.866025 -0.5 0
    outer loop
      vertex 3.2 0 0
      vertex 1.6 2.77128 2
      vertex 1.6 2.77128 0
    endloop
  endfacet
  facet normal 0 -1 0
    outer loop
      vertex 1.6 2.77128 0
      vertex 1.6 2.77128 2
      vertex -1.6 2.77128 2
    endloop
  endfacet
  facet normal 0 -1 0
    outer loop
      vertex -1.6 2.77128 0
      vertex 1.6 2.77128 0
      vertex -1.6 2.77128 2
    endloop
  endfacet
  facet normal 0.866025 -0.5 0
    outer loop
      vertex -1.6 2.77128 0
      vertex -1.6 2.77128 2
      vertex -3.2 0 2
    endloop
  endfacet
  facet normal 0.866025 -0.5 0
    outer loop
      vertex -3.2 0 0
      vertex -1.6 2.77128 0
      vertex -3.2 0 2
    endloop
  endfacet
endsolid OpenSCAD_Model
